<svg version="1" xmlns="http://www.w3.org/2000/svg" width="933.333" height="933.333" viewBox="0 0 700.000000 700.000000"><path d="M103.7 217.7c-.4.3-.7 60.9-.7 134.5V486h185l-.2-23.3-.3-23.2-64.2-.3-64.3-.2V217h-27.3c-15.1 0-27.7.3-28 .7zM304 218.5c0 1 68 243 74.6 265.7.5 1.7 2.6 1.8 25.7 1.8h25.2L451 383.1c11.8-56.6 21.8-102.4 22.1-101.8.4.7 10.5 47 22.5 102.9L517.4 486h50.2l37.1-133.8c20.4-73.5 36.9-134 36.6-134.5-.2-.4-13.4-.7-29.3-.7h-29l-.5 2.2c-.3 1.3-9.3 45.9-19.9 99.3-10.6 53.3-19.6 96.3-20 95.5-.3-.8-9.8-44.5-21.1-97s-20.9-96.5-21.2-97.8l-.5-2.2h-54.6l-.5 2.2c-.3 1.3-9.4 45-20.2 97.3-10.7 52.2-19.9 95.8-20.3 96.8-.5 1.1-8.5-35.9-21.1-96.5-11.2-54.1-20.5-98.6-20.8-99.1-.2-.4-13.4-.7-29.4-.7-24.6 0-28.9.2-28.9 1.5z"/></svg>