<svg version="1" xmlns="http://www.w3.org/2000/svg" width="933.333" height="933.333" viewBox="0 0 700.000000 700.000000"><path d="M111.3 217.8c-4 .2-7.3.6-7.4 1-.1 1-.1 262.2 0 264.8l.1 2.1h183l-.2-23-.3-23h-63.7l-63.8.1V218l-8.7-.1c-4.9 0-14-.1-20.3-.2-6.3-.1-14.8-.1-18.7.1zM311.2 217.8c-6.3.3-7.2.5-6.8 2 .3.9 1.4 4.8 2.5 8.7 1.1 3.8 2.7 9.5 3.5 12.5.8 3 3.2 11.8 5.4 19.5 2.2 7.7 5 17.4 6.1 21.5 1.1 4.1 3 10.6 4.1 14.5 1.1 3.8 2.9 10.1 3.9 14 1.1 3.8 3.6 12.6 5.5 19.5 5.8 20.2 6 20.8 17.5 61.5 6.1 21.4 13.3 47.1 16.1 57 2.8 9.9 5.3 18.7 5.5 19.5.2.8 1.4 5.1 2.7 9.5l2.3 8 24.8.2c24.6.1 24.7.1 25.2-2 1.7-7.6 4.9-22.4 6.5-30.6 1-5.3 4.8-23.6 8.4-40.6 7.4-35.4 10.3-48.9 11-52.5.3-1.4.7-3.6 1-4.9.3-1.4 1.5-7 2.6-12.5 1.2-5.6 3.4-16.2 5-23.6 1.6-7.4 3.1-14.6 3.3-16 .4-2.1 3.2-15.3 4.2-20 .2-.8.4-2.1.4-2.8.1-1.9 2.1-1.4 2.1.6 0 1 2.3 12.1 5 24.7 4.2 18.9 8 36.7 10.5 49 .7 2.9 1.5 6.7 2 9 .2 1.1 1.6 7.4 3 14s2.8 12.9 3 14c.4 1.8 1.8 8.5 2.9 14 .4 1.6 4.3 19.7 6.2 28 .2 1.1.7 3.6 1 5.5.3 1.9.8 3.8 1 4.1.2.3.6 1.9.8 3.6 1.2 6.5 7.5 36 8.1 37.5.6 1.4 3.5 1.6 25.2 1.4l24.7-.1.7-2.5c.3-1.4 3.1-11.5 6.2-22.5 10.6-38 28.9-104 30.2-109 .7-2.8 3.6-13.1 6.4-23 2.7-9.9 6.6-23.9 8.6-31 2-7.2 4.2-15.3 5-18 5.7-21.3 16.5-59.7 17-60.5.7-1.1 0-1.1-32-1.1-10.7 0-21 0-22.9.1-3.6 0-3.5-.1-5 7.5-.2 1.1-1.9 9.2-3.6 18-1.8 8.8-3.3 16.7-3.5 17.5-.2.9-2.6 13.3-5.5 27.5-2.9 14.3-5.4 27.1-5.7 28.4-.3 2.1-4.3 22-5.9 29.6-2.5 12.4-3.6 18-4 20.3-.3 1.5-2.3 11.6-4.5 22.6-4.9 24.5-4.7 23.7-4.8 25.8-.1 2-1.7 2.5-1.8.5-.1-1.5-1.5-8.1-4.2-19.7-.5-2.5-1.3-6.1-1.6-8-.3-1.9-1.3-6.4-2.1-10-.8-3.6-1.9-8.3-2.5-10.5-.5-2.2-2.7-12.6-4.9-23-2.3-10.5-5.2-24.2-6.6-30.5-1.4-6.3-2.9-13.5-3.4-16s-1.2-5.6-1.5-7c-.3-1.4-.8-3.6-1.1-5-.3-1.3-2.8-12.8-5.5-25.5-2.7-12.6-5.9-27.4-7.1-32.8l-2.1-9.7-3.6-.1c-10.2-.2-50.4.1-50.6.3-.3.3-10.5 48.6-11.9 55.8-.2 1.4-2 10.1-3.9 19.5-15.1 72.4-13.1 63.3-14.6 69.5-.5 2.5-1.3 6.1-1.6 8-.5 2.9-2.5 12.7-4 20-.2.8-1.3 6.4-2.5 12.5-2.8 13.8-3.5 15.2-4.5 8.9-.5-2.7-.9-5.4-1.1-5.9-.4-1.7-5.5-25.9-6-28.5-.2-1.4-.9-4.5-1.4-7-.6-2.5-1.3-5.6-1.5-6.9-.4-2.2-4.1-20.1-5-24.1-.2-.8-2.8-13.7-5.9-28.5-12.9-62.9-17.5-85-19.1-92-.4-1.9-1.2-2-22.2-2-12 0-25.1.1-29.1.3z"/></svg>